 <svg  version="1.0" xmlns="http://www.w3.org/2000/svg"  width="300.000000pt" height="58.000000pt" viewBox="0 0 300.000000 58.000000"  preserveAspectRatio="xMidYMid meet">  <g transform="translate(0.000000,58.000000) scale(0.100000,-0.100000)" fill="#00adb4" stroke="none"> <path d="M249 555 c-27 -14 -59 -69 -59 -100 0 -9 4 -24 10 -34 8 -17 5 -18 -34 -14 -126 15 -186 -134 -83 -205 36 -24 77 -28 109 -11 19 10 20 9 12 -7 -4 -11 -8 -36 -8 -57 0 -74 97 -130 164 -95 56 30 79 94 55 152 -7 16 -6 17 13 7 11 -6 35 -11 53 -11 44 0 109 65 109 109 0 76 -59 127 -136 118 -39 -4 -42 -3 -34 14 14 25 12 46 -6 85 -28 59 -105 82 -165 49z m134 -36 c29 -32 35 -71 15 -114 -15 -33 -8 -38 30 -19 42 21 85 11 117 -28 36 -42 34 -91 -5 -130 -26 -26 -36 -29 -73 -26 -23 3 -51 8 -61 13 -17 7 -18 5 -11 -16 4 -13 9 -41 12 -61 4 -32 0 -42 -25 -68 -43 -42 -101 -42 -144 0 -25 26 -29 36 -25 68 3 20 8 48 12 61 7 21 6 23 -11 16 -10 -5 -38 -10 -61 -13 -37 -3 -47 0 -73 26 -41 41 -41 89 -1 134 24 27 36 33 70 32 22 -1 48 -7 56 -14 22 -18 30 -5 17 25 -19 41 -14 81 13 114 42 49 102 50 148 0z"/> <path d="M265 505 c-30 -29 -32 -64 -6 -97 l20 -25 -58 -57 c-60 -59 -96 -71 -96 -31 0 14 9 21 33 26 44 9 51 18 28 35 -27 19 -49 18 -80 -7 -30 -24 -34 -63 -10 -97 18 -27 69 -30 103 -6 22 16 24 15 82 -42 62 -62 71 -89 29 -89 -20 0 -25 5 -25 27 0 15 -5 32 -12 39 -9 9 -15 6 -24 -14 -16 -36 -4 -74 31 -92 70 -36 135 52 80 110 l-20 22 66 63 c59 57 67 62 81 47 23 -23 9 -50 -22 -45 -26 6 -51 -14 -40 -32 11 -17 80 -12 98 8 26 29 22 77 -9 101 -34 27 -54 26 -88 0 l-28 -22 -59 59 c-62 62 -68 74 -44 94 20 16 49 -6 42 -31 -6 -21 17 -44 33 -34 5 3 10 21 10 40 0 24 -7 39 -26 54 -35 27 -59 26 -89 -4z m78 -183 l27 -28 -30 -29 -30 -29 -30 29 -30 29 27 28 c15 15 30 28 33 28 3 0 18 -13 33 -28z"/> <path d="M750 290 c0 -173 1 -180 20 -180 19 0 20 7 20 180 0 173 -1 180 -20 180 -19 0 -20 -7 -20 -180z"/> <path d="M2000 289 c0 -161 2 -180 16 -175 9 3 51 6 95 6 72 0 81 2 111 28 41 38 44 91 6 129 l-26 25 20 33 c17 30 18 36 5 68 -23 55 -50 67 -144 67 l-83 0 0 -181z m179 99 c23 -40 -4 -65 -75 -70 l-54 -3 0 53 0 53 57 -3 c50 -3 59 -6 72 -30z m21 -151 c14 -27 14 -29 -13 -53 -22 -19 -39 -24 -83 -24 l-54 0 0 58 0 57 67 -5 c61 -5 69 -8 83 -33z"/> <path d="M1170 390 c0 -5 -16 -27 -35 -49 -40 -44 -42 -51 -15 -51 18 0 20 -7 20 -68 0 -83 14 -106 63 -106 20 0 39 3 42 6 12 12 -8 37 -33 40 -26 3 -27 6 -29 66 l-2 62 29 0 c26 0 30 4 30 26 0 24 -3 25 -31 19 l-32 -7 6 36 c3 20 2 36 -4 36 -5 0 -9 -4 -9 -10z"/> <path d="M860 225 c0 -108 1 -115 20 -115 18 0 20 7 20 79 0 86 2 89 56 101 52 12 64 -6 64 -95 0 -72 6 -85 41 -85 13 0 11 130 -2 169 -11 30 -52 61 -81 61 -7 0 -26 -7 -42 -15 -27 -14 -31 -14 -38 0 -5 8 -16 15 -23 15 -12 0 -15 -21 -15 -115z"/> <path d="M1333 319 c-114 -73 -16 -251 106 -192 38 19 61 64 25 48 -41 -18 -95 -18 -114 0 -11 10 -20 22 -20 27 0 4 36 8 79 8 44 0 82 4 85 8 13 21 -16 84 -47 102 -41 25 -74 25 -114 -1z m80 -30 c22 -12 37 -28 37 -41 0 -5 -27 -8 -61 -8 -52 0 -60 2 -57 17 2 10 14 23 28 30 31 15 27 15 53 2z"/> <path d="M1542 228 c3 -105 4 -113 23 -113 18 0 20 8 23 75 3 87 13 103 60 98 25 -3 36 1 43 14 8 15 5 20 -17 30 -22 10 -31 9 -55 -5 -26 -14 -31 -15 -35 -2 -4 8 -15 15 -25 15 -18 0 -19 -7 -17 -112z"/> <path d="M1740 224 c0 -114 0 -115 23 -112 21 3 22 7 18 80 -3 71 -2 77 20 89 29 15 59 18 82 7 14 -7 17 -22 17 -87 0 -63 3 -80 16 -85 33 -13 36 -6 32 83 -2 70 -7 93 -22 110 -27 30 -80 37 -112 16 -25 -16 -28 -16 -36 -1 -5 9 -16 16 -23 16 -12 0 -15 -21 -15 -116z"/> <path d="M2307 258 c2 -46 9 -93 15 -105 17 -34 68 -47 111 -29 31 13 36 13 41 -1 3 -8 13 -13 22 -11 13 2 16 21 16 113 0 104 -2 110 -21 113 -20 3 -21 -1 -21 -77 0 -89 -8 -101 -68 -101 -42 0 -51 16 -54 100 -3 67 -5 75 -24 78 -20 3 -20 -1 -17 -80z"/> <path d="M2564 325 c-13 -33 2 -42 57 -37 l52 5 -57 -83 c-31 -45 -54 -85 -51 -89 3 -3 44 -6 91 -8 l84 -2 0 30 0 30 -55 -6 -56 -7 56 80 c30 44 55 85 55 91 0 7 -30 11 -85 11 -67 0 -87 -3 -91 -15z"/> <path d="M2790 311 c0 -28 0 -28 52 -23 l52 5 -19 -29 c-10 -16 -36 -53 -56 -83 -21 -30 -36 -57 -34 -61 2 -3 42 -7 89 -9 l86 -2 0 32 0 32 -50 -7 c-27 -4 -50 -4 -50 0 0 3 23 38 50 78 28 40 50 78 50 84 0 8 -26 12 -85 12 l-85 0 0 -29z"/> </g> </svg> 